<?xml version="1.0" encoding="utf-8"?>
<!-- Generator: Adobe Illustrator 23.1.1, SVG Export Plug-In . SVG Version: 6.00 Build 0)  -->
<svg version="1.1" id="Layer_1" xmlns="http://www.w3.org/2000/svg" xmlns:xlink="http://www.w3.org/1999/xlink" x="0px" y="0px"
	 viewBox="0 0 600 600" style="enable-background:new 0 0 600 600;" xml:space="preserve">
<style type="text/css">
	.st0{fill:#FFFFFF;}
</style>
<path d="M57.63,365.63c0.74-0.8,1.35-2.05,2.24-2.31c2.44-0.7,5-0.98,7.51-1.42c2.23-0.39,4.66-0.32,6.65-1.23
	c11.09-5.05,23.2-7.64,33.61-14.45c3.71-2.43,8.49-3.14,12.58-5.07c13.08-6.17,26.14-12.37,39.05-18.88
	c11.63-5.87,23.59-11.33,32.66-21.19c11.33-7.44,19.98-17.61,28.39-28.01c1.07-1.32,2.28-2.57,3.1-4.03c2.53-4.54,6.29-7,11.42-7.67
	c0.78-0.1,1.9-1.33,1.98-2.13c0.09-0.95-0.53-2.28-1.28-2.92c-0.77-0.65-2.15-1.05-3.14-0.87c-7.76,1.42-15.68,0.37-23.48,1.86
	c-10.59,2.03-21.32,3.31-31.98,4.99c-8.5,1.33-16.32,4.73-24.21,7.95c-7.34,3-14.88,5.43-22.76,6.59
	c-5.38,0.79-10.15-0.48-14.15-4.25c-3.75-3.54-7.89-6.34-12.74-8.34c-6.77-2.8-10.11-8.83-12.5-15.38
	c-0.57-1.57-0.66-3.32-0.98-5.01c2.45-3.76,5.62-4.41,9.54-2.7c11.47,5.02,23.72,5.48,35.94,5.93c3.12,0.11,6.13,0.27,9.23,1.02
	c3.8,0.92,7.87,0.9,11.83,0.95c7.96,0.09,15.93,0.14,23.88-0.15c6.81-0.25,13.61-0.93,20.4-1.58c10.75-1.02,21.5-2.1,32.23-3.28
	c5.02-0.55,6.36-2.22,6.11-7.29c-0.32-6.51-0.81-12.97-4.08-18.87c-1.9-3.44-1.88-6.95-0.16-10.6c1.56-3.33,2.68-6.86,3.95-10.21
	c0.55-0.41,0.96-0.81,1.44-1.08c1.96-1.1,3.94-2.16,5.84-3.2c8.17,3.68,16.74,5.47,25.27,7.45c3.06,0.71,5.95,1.8,7.75,5.24
	c-1.79,0.93-3.4,2.07-5.2,2.66c-3.52,1.15-5.39,3.7-7.25,6.73c-4.7,7.66-5.77,15.88-4.87,25.03c1.63,0.28,3.24,0.83,4.83,0.79
	c16.48-0.37,32.95-1,49.43-1.19c6.5-0.07,13.01,0.88,19.52,1.2c3.67,0.18,7.41,0.36,11.04-0.08c8.43-1.02,16.94-1.36,25.27-3.5
	c3.77-0.97,7.95-0.25,11.88-0.74c6.19-0.78,12.36-1.77,18.47-2.99c3.13-0.62,5.74,0.06,7.83,2.15c4.19,4.21,8.26,8.56,12.18,13.03
	c1.62,1.85,2.75,4.13,4.55,6.92c-7.76,0.96-14.39,2.05-21.51,1.05c-11.51-1.61-22.75-4.48-34.19-6.31
	c-15.45-2.47-31.02-2.9-46.63-2.17c-14.73,0.69-29.47,1.25-44.2,2.03c-5.1,0.27-10.19,0.91-15.24,1.62c-4.37,0.61-4.35,0.77-4.55,6
	c4.52,4.51,8.82,8.94,13.28,13.21c5.33,5.11,10.72,10.17,16.24,15.08c2.95,2.62,6.26,4.7,8.47,8.24c1.24,1.98,3.94,3.13,6.12,4.43
	c10.94,6.55,21.32,13.91,31.78,21.17c9.75,6.77,19.58,13.76,31.05,17.23c13.56,4.1,26.41,10.37,40.42,13.01
	c5.01,0.94,9.99,2.11,15.03,2.89c6.75,1.04,13.26,2.53,19.53,5.48c4.25,2,8.81,3.26,11.88,7c-3.55,0.67-7.25,1.46-10.98,2.06
	c-2.51,0.4-5.07,0.71-7.61,0.74c-9.64,0.11-19.32-0.72-28.9,1.22c-1.62,0.33-3.42,0.08-5.09-0.18c-5.04-0.79-10.14-1.39-15.06-2.69
	c-4.74-1.25-9.46-1.69-14.31-1.85c-1.84-0.06-3.85-0.88-5.42-1.91c-3.09-2.04-6.16-3.98-9.66-5.27c-1.84-0.68-3.77-1.56-5.2-2.86
	c-8.57-7.79-19.06-12.92-27.6-20.95c-9.21-8.65-19.94-15.69-30.13-23.26c-2.27-1.68-4.21-3.22-5.93-5.7
	c-2.67-3.87-6.73-6.8-10.29-10.02c-4.2-3.8-8.45-7.56-12.77-11.21c-1.45-1.22-3.2-2.09-5.4-3.49c-0.71,1.78-1.5,2.98-1.62,4.24
	c-0.41,4.24-0.68,8.5-0.82,12.76c-0.24,7.32,0.3,14.6-0.85,21.96c-1.09,6.98-0.73,14.18-1,21.29c-0.28,7.39-0.59,14.78-0.84,22.18
	c-0.25,7.55-2.42,14.39-6.39,20.91c-2.62,4.3-4.18,9.27-6.04,14.02c-1.6,4.08-1.49,4.12-4.96,7.97c-0.59-1.05-1.11-1.97-1.81-3.2
	c-1.35,0.67-2.71,1.34-4.07,2.01c-1.57-2.03,1.14-4.63-1.28-6.39c-0.39-0.28-0.43-1.89-0.03-2.29c3.27-3.27,2.31-7.43,2.6-11.32
	c0.5-6.52,0.96-13.04,1.4-19.57c0.15-2.27,0.27-4.55,0.28-6.82c0.09-16.2,0.15-32.4,0.21-48.6c0-0.28,0.05-0.57,0.01-0.85
	c-0.97-7.28-1.32-14.59-0.29-22.32c-1.35,0.25-2.4,0.12-2.77,0.56c-10.48,12.36-21.85,23.83-34.26,34.26
	c-0.87,0.73-1.64,1.58-2.45,2.37c-3.02,2.96-5.69,6.43-9.15,8.74c-3.47,2.31-7.75,3.39-11.62,5.13
	c-7.77,3.48-15.46,7.15-23.28,10.51c-2.55,1.09-5.4,1.5-8.13,2.14c-1.37,0.32-2.94,0.17-4.15,0.77c-10.87,5.39-23.1,5.43-34.45,8.89
	c-2.69,0.82-5.61,0.87-8.41,1.34c-3.06,0.51-6.12,1.06-9.18,1.63c-1.11,0.21-2.19,0.66-3.31,0.77c-8.46,0.85-16.93,1.65-25.4,2.46
	L57.63,365.63z M380.77,242.04c0,0.38-0.01,0.76-0.01,1.14c1.72-0.08,3.44-0.16,5.16-0.24c0-0.19,0-0.37,0-0.56
	C384.2,242.27,382.49,242.15,380.77,242.04z"/>
<path d="M312.07,164.41c-1.97,4-3.95,7.99-6.01,12.18c2.04,2.89,5.27,3.21,8.23,3.93c6.04,1.46,6.05,1.41,8.42,7.79
	c-1.56,3.01-4.36,2.16-6.71,1.73c-3.33-0.61-6.51-1.99-9.84-2.58c-7.5-1.34-15.05-2.41-22.58-3.58c-0.84-0.13-1.71-0.36-2.54-0.26
	c-12.31,1.44-24.91-0.79-37.02,4.13c-5.89,2.39-12.71,2.55-19.15,3.45c-3.39,0.48-6.37-1.21-7.96-4.02
	c-2.31-4.1-4.13-8.51-5.8-13.61c2.83-0.94,5.21-2.47,7.53-2.37c9.58,0.39,19.11-1.15,28.76,0.26c8.92,1.3,18.03,2.15,27.15,1.04
	c2.17-0.27,4.46,0.35,7.02,0.59c3.38-5.27,6.69-10.49,10.06-15.67c1.23-1.9,2.62-3.7,3.91-5.56c0.64-0.92,1.65-1.81,1.79-2.82
	c1.07-7.34,5.67-12.95,9.29-18.98c3.65-6.09,5.92-12.7,8.04-19.36c0.99-3.14,3.57-5.91,2.62-9.86c-6.61-2.32-13.48-1.81-20.18-1.34
	c-12.46,0.87-24.89,2.25-37.3,3.72c-3.91,0.46-7.71,1.9-11.58,2.8c-6.64,1.55-13.28,3.04-19.94,4.52c-1.11,0.24-2.48,0.74-3.35,0.33
	c-5.53-2.65-11.14-0.7-16.72-0.63c-8.15,0.1-14.04-4.14-18.59-10.35c-1.4-1.91-1.7-4.63-2.55-7.14c1.89-1.14,3.36-2.03,5.37-3.25
	c-0.32-0.13,0.67-0.03,1.18,0.51c4.46,4.71,10.14,5.8,16.31,6.06c11.14,0.46,22.09-1.01,33.06-2.64
	c11.79-1.75,23.69-2.88,35.42-4.96c13.82-2.45,27.72-0.92,41.56-1.71c7.33-0.42,14.68-0.99,21.96-1.94c3.3-0.43,6.17-0.09,9,1.49
	c3.42,1.9,6.87,3.76,10.59,5.78c1.21,2.15,0.14,4.13-1.54,5.82c-5,5.01-10.13,9.9-15.14,14.9c-4.86,4.86-8.06,10.91-11.68,16.65
	c-3.63,5.75-5.68,12.43-10.37,17.56c-0.37,0.4-0.73,0.98-0.76,1.49c-0.33,7.19-5.39,11.37-10.03,15.83
	c-0.43,0.04-0.84,0.09-0.77,0.08C311.17,164.41,311.62,164.41,312.07,164.41z"/>
<path d="M475.13,490.81c0.56,2.22,0.93,4.47,1.72,6.57c0.88,2.36,1.64,5.05,3.31,6.75c3.06,3.11,2.97,5.83,0.49,8.99
	c-0.69,0.87-1.26,1.84-2.2,3.24c-2.41-0.5-4.79-0.99-7.15-1.48c-3.1-6.9-4.89-13.64-4.5-20.67c-1.92-1.46-2.84,0.02-3.84,0.84
	c-1.92,1.57-3.88,2.23-6.7,0.55c0.81-1.42,1.39-2.95,2.4-4.11c2.23-2.56,4.88-4.77,6.93-7.45c0.87-1.14,0.69-3.09,0.97-4.57
	c-2.73-1.78-5.14-3.22-7.39-4.88c-1.57-1.16-1.79-2.94-0.75-4.54c0.53-0.82,1.59-1.36,2.52-1.8c0.42-0.2,1.2-0.02,1.63,0.27
	c4.85,3.26,8.65,0.51,12.41-2.17c2.91-2.08,3.64-4.69,1.14-7.21c-3.82-3.86-3.64-7.96-2.33-12.46c1.8-1.38,3.27-0.87,4.42,0.71
	c1.16,1.61,2.16,3.33,3.25,4.99c1.55,2.35,2.82,4.99,4.77,6.94c2.16,2.15,3.21,4.54,3.65,7.51c-0.36,0.69-0.71,1.46-1.15,2.18
	c-1.11,1.83-3.61,3.67-1.7,5.85c1.78,2.04,4.27,0.21,6.35-0.42c8.68-2.61,17.34-5.29,26-7.96c3.65-1.12,7.25-1.06,11.37,0.45
	c-0.26,1.61-0.01,3.54-0.86,4.59c-2.47,3.05-5.41,5.72-8.12,8.59c-0.93,0.99-1.89,2.03-2.53,3.21c-1.99,3.72-3.83,7.51-5.87,11.54
	c0.39,2.59,1.49,5.4,4.51,6.26c2.88,0.82,5.84,1.83,9.06,0.21c3.53-1.78,7.38-2.94,11.11-4.3c0.98-0.35,2.05-0.44,4.15-0.86
	c-3.2,3.92-5.29,7.39-8.24,9.84c-2.96,2.46-6.64,4.23-10.25,5.7c-4.89,2-9.39,0.42-12.77-3.86c-0.88-1.11-1.6-2.35-2.48-3.45
	c-1.47-1.83-2.51-3.6-1.9-6.2c0.36-1.54,0.37-4.16-0.54-4.84c-3.6-2.69-2.08-6.15-2.15-9.41c-0.02-0.83-0.3-1.65-0.46-2.46
	c-2.24-1.77-4.67-1.94-7.26-1.34c-4.15,0.96-8.26,2.19-12.46,2.79C478.83,483.63,475.9,485.95,475.13,490.81z"/>
<path d="M174.14,107.29c-0.74,1.5-1.12,2.95-2.01,3.95c-1.77,1.96-1.83,4.01-1.11,6.33c0.74,2.41,1.33,4.7,0.69,7.43
	c-0.47,1.99,0.36,4.48,1.16,6.53c2.49,6.3,6.45,11.96,7.85,18.78c0.37,1.8,2.05,3.34,3.18,4.96c2.43,3.49,4.72,7.09,7.39,10.4
	c2.47,3.07,5.12,6.08,8.11,8.63c5.18,4.42,3.96,10.18,3.83,15.73c-0.03,1.39-2.93,2.02-4.36,0.86c-3.06-2.48-6.21-4.92-8.94-7.74
	c-2.75-2.84-5.16-5.96-8.52-8.23c-1.84-1.25-3.31-3.1-4.76-4.84c-5.81-6.95-11.52-13.99-17.33-20.94
	c-6.27-7.5-8.79-16.37-9.62-25.88c-0.17-1.97,0.19-4.05-0.31-5.91c-1.4-5.1,0.62-9.99,0.64-15.01c0.02-3.59,2.93-6.16,5.66-8.08
	c2.13-1.5,4.98-1.28,7.22,0.37c1.81,1.33,3.52,2.88,5,4.58C169.94,101.55,171.71,104.12,174.14,107.29z"/>
<path d="M372.67,499.79c-2.73,0.39-5.54,0.89-8.06-2.05c2.78-10.66,10.34-19.71,12.25-31.06c-3.62-3.49-9.79-3.56-12-8.74
	c0.41-0.62,0.73-1.47,1.01-1.46c6.32,0.22,12.12-1.84,18.17-3.99c0.83-1.26,1.7-2.71,2.7-4.07c2.76-3.78,6.91-4.07,10.01-0.68
	c0.56,0.61,0.95,1.38,1.33,2.13c0.62,1.23,1.17,2.5,1.88,4.04c-3.55,4.11-8.14,6.22-12.75,8.21c-3.51,1.51-5.01,4.18-5.76,7.74
	c-0.96,4.54,1.41,7.58,4.2,10.49c0.74,0.77,1.78,1.24,3.13,2.15C383.74,488.86,378.57,494.59,372.67,499.79z"/>
<path d="M406.2,510.93c-3.25,3.55-6.46,3.36-10.27,1.55c-4.33-2.05-7.66-4.7-9.11-9.45c-0.65-2.12-0.42-4.01,0.97-5.58
	c2.04-2.33,4-4.84,7.28-5.62c4.38-1.04,6.68-3.69,7.14-8.31c0.3-3.06,1.37-6.06,2.27-9.03c0.2-0.65,1.13-1.09,1.75-1.65
	c1.92,1.38,0.14,2.59,0.09,3.77c-0.06,1.4-0.44,2.79-0.61,4.18c-0.17,1.34-0.25,2.7-0.43,4.69c2.25,0.24,4.13,0.75,5.94,0.57
	c5.2-0.5,9.51,1.49,13.07,4.86c3,2.84,6.5,5.38,8.78,9.89c-1.45,0.24-2.5,0.72-3.36,0.5c-3.56-0.93-7.11-1.96-10.58-3.19
	c-2.99-1.06-5.96-1.72-9.45-1.11C406.09,501.04,406.53,506.28,406.2,510.93z M398.02,506.05c0.88-1.95,1.72-3.36,2.17-4.88
	c0.76-2.56,0.2-4.07-1.25-4.15c-1.67-0.08-3.95,1.66-4.15,3.45C394.56,502.49,395.05,504.35,398.02,506.05z"/>
<path d="M271.17,503.35c-2.11-1.22-4.13-2.22-5.97-3.48c-5.38-3.68-6.59-7.83-4.62-13.94c1.56-4.83,2.77-9.78,4.12-14.67
	c0.15-0.54,0.27-1.11,0.32-1.67c0.44-4.74,0.68-9.39-7.25-10.99c3.38-1.21,4.87-2.04,6.45-2.23c2.56-0.32,4.46,0.92,5.4,3.22
	c3.1,7.54,4.24,15.21,1.13,23.06c-0.21,0.53-0.48,1.03-0.76,1.52c-1.58,2.75-1.76,5.58,0.63,7.79c2.31,2.14,4.78,0.4,7.12-0.54
	c1.19-0.48,2.46-0.79,5.03-1.59c-2.36,4.75-5.13,7.5-7.34,10.58C274.52,501.68,272.74,502.31,271.17,503.35z"/>
<path d="M435.13,466.45c-8.89,0.76-16.35,1.39-24.42,2.08c0.24-0.94,0.18-2.19,0.76-2.67c2.38-1.98,4.96-3.72,8.01-5.95
	c-0.36-2.31-0.78-4.95-1.19-7.57c2.41-1.7,4.41-0.22,6.26,0.88c2.36,1.4,5.81,1.03,7.14,4.07
	C432.79,459.82,433.64,462.45,435.13,466.45z"/>
<path d="M328.56,492.05c-4.35,5.11-8.84,7.18-14.45,7.45c-9.66,0.48-13.26-0.48-20.08-6.09c6.96-3.85,6.96-3.85,13.75-1.96
	c5.01,1.39,10.09,0.82,15.17,0.61C324.48,491.99,326.03,492.05,328.56,492.05z"/>
<path d="M327.57,467.4c-3.88,3.79-7.55,4.76-12.42,2.37c-5.87-2.88-12.38-3.18-18.86-3.06c-0.74,0.01-1.48-0.2-3.32-0.47
	c8.07-5.16,15.89-6.33,24.07-4.93C321.05,462,325.26,463,327.57,467.4z"/>
<path class="st0" d="M384.77,242.04c1.72,0.11,3.43,0.23,5.15,0.34c0,0.19,0,0.37,0,0.56c-1.72,0.08-3.44,0.16-5.16,0.24
	C384.76,242.8,384.76,242.42,384.77,242.04z"/>
<path class="st0" d="M316.07,164.41c-0.45,0-0.89,0-0.86,0c-0.07,0.01,0.34-0.04,0.77-0.08C316,164.33,316.07,164.41,316.07,164.41z
	"/>
<path class="st0" d="M398.02,506.05c-2.97-1.7-3.46-3.56-3.23-5.58c0.2-1.79,2.48-3.53,4.15-3.45c1.45,0.07,2.02,1.59,1.25,4.15
	C399.73,502.69,398.9,504.1,398.02,506.05z"/>
<g>
	<g>
		<path d="M385.53,244.66c4.86,0,9.72,0,14.58,0c1.93,0,1.93-3,0-3c-4.86,0-9.72,0-14.58,0C383.6,241.66,383.6,244.66,385.53,244.66
			L385.53,244.66z"/>
	</g>
</g>
<g>
	<g>
		<path d="M322.62,142.28c-0.52,1.07-1.11,2.1-1.76,3.1c-0.31,0.48-0.64,0.96-0.98,1.42c-0.09,0.12-0.17,0.23-0.26,0.35
			c-0.17,0.23,0.12-0.15,0,0c-0.04,0.06-0.09,0.11-0.13,0.17c-0.19,0.24-0.38,0.48-0.58,0.71c-0.5,0.6-0.63,1.54,0,2.12
			c0.56,0.51,1.58,0.64,2.12,0c1.63-1.95,3.05-4.06,4.18-6.35c0.35-0.7,0.21-1.66-0.54-2.05
			C323.99,141.39,322.99,141.53,322.62,142.28L322.62,142.28z"/>
	</g>
</g>
<g>
	<g>
		<path d="M320.04,136.48c1.93,0,1.93-3,0-3C318.1,133.48,318.1,136.48,320.04,136.48L320.04,136.48z"/>
	</g>
</g>
<g>
	<g>
		<path d="M306.27,147.25c-3.66,4.72-6.48,9.97-8.32,15.65c-0.6,1.84,2.3,2.63,2.89,0.8c1.68-5.15,4.23-10.04,7.55-14.33
			c0.5-0.64,0.62-1.5,0-2.12C307.88,146.73,306.77,146.61,306.27,147.25L306.27,147.25z"/>
	</g>
</g>
<g>
	<g>
		<path d="M507.17,493.07c-0.06,0.65-0.12,1.3-0.18,1.95c0.33-0.04,0.65-0.09,0.98-0.13c-0.48-1.3-0.88-2.62-1.19-3.97
			c-0.3,0.13-0.61,0.26-0.91,0.39c0.75,1.62,0.99,3.4,1.22,5.15c0.12,0.86,0.23,1.73,0.41,2.58c0.16,0.81,0.37,1.58,0.93,2.22
			c0.3,0.34,0.84,0.05,0.85-0.35c0.01-0.2,0.01-0.4,0.02-0.6c0.02-0.64-0.98-0.64-1,0c-0.01,0.2-0.01,0.4-0.02,0.6
			c0.28-0.12,0.57-0.24,0.85-0.35c-0.54-0.62-0.64-1.59-0.78-2.38c-0.15-0.83-0.25-1.67-0.36-2.5c-0.23-1.68-0.54-3.33-1.25-4.87
			c-0.25-0.53-1.04-0.15-0.91,0.39c0.32,1.35,0.72,2.67,1.19,3.97c0.2,0.54,0.93,0.44,0.98-0.13c0.06-0.65,0.12-1.3,0.18-1.95
			C508.23,492.43,507.23,492.43,507.17,493.07L507.17,493.07z"/>
	</g>
</g>
<g>
	<g>
		<path d="M511.38,494.04c0.05,0.14,0.08,0.29,0.11,0.44c-0.01-0.04-0.01-0.09-0.02-0.13c0.03,0.21,0.03,0.41,0,0.62
			c0.01-0.04,0.01-0.09,0.02-0.13c-0.03,0.19-0.07,0.37-0.14,0.55c-0.04,0.11-0.01,0.28,0.05,0.39c0.06,0.1,0.18,0.2,0.3,0.23
			c0.13,0.03,0.27,0.02,0.39-0.05c0.12-0.07,0.18-0.17,0.23-0.3c0.23-0.59,0.24-1.28,0.03-1.87c-0.08-0.25-0.35-0.44-0.62-0.35
			C511.48,493.5,511.29,493.77,511.38,494.04L511.38,494.04z"/>
	</g>
</g>
<g>
	<g>
		<path d="M170.48,110.67c-0.58,1.46-0.75,3.02-0.79,4.58c-0.04,1.7-0.01,3.4,0.01,5.1c0.03,3.48,0.11,6.97,0.22,10.45
			c0.33-0.04,0.65-0.09,0.98-0.13c-0.02-0.14-0.04-0.28-0.06-0.42c-0.1-0.63-1.06-0.36-0.96,0.27c0.02,0.14,0.04,0.28,0.06,0.42
			c0.08,0.56,1,0.42,0.98-0.13c-0.11-3.4-0.19-6.8-0.22-10.2c-0.02-1.63-0.04-3.26-0.02-4.89c0.02-1.63,0.15-3.24,0.76-4.77
			C171.68,110.34,170.72,110.08,170.48,110.67L170.48,110.67z"/>
	</g>
</g>
<g>
	<g>
		<path d="M237.92,397.31c-0.73,2.74-1.46,5.48-2.19,8.21c-0.13,0.49,0.48,0.83,0.84,0.49c0.99-0.93,1.97-1.86,2.96-2.78
			c0.29-0.27,0.12-0.72-0.22-0.84c-0.83-0.28-1.78-0.53-2.57,0c-0.57,0.38-0.91,1.12-0.62,1.78c0.31,0.69,1.06,0.9,1.75,1
			c0.85,0.12,1.82,0.22,2.6-0.24c1.11-0.66,1.45-2.82-0.24-2.91c-0.56-0.03-1.15,0.25-1.33,0.81c-0.12,0.37-0.08,0.68-0.34,1.01
			c-0.32,0.41-0.78,0.6-1.29,0.59c-0.34-0.01-0.55,0.32-0.48,0.63c0.18,0.79,0.81,1.27,1.59,1.35c0-0.33,0-0.67,0-1
			c-0.39,0.01-0.79,0.03-1.18,0.04c0.08,0.31,0.17,0.62,0.25,0.93c0.53-0.33,1.27,0.05,1.86-0.1c0.43-0.1,0.86-0.41,0.93-0.86
			c0.13-0.79-0.91-1.58-1.52-0.89c-0.3,0.34-0.02,1.04,0.49,0.84c0.35-0.14,0.71-0.29,1.06-0.43c-0.13-0.3-0.26-0.61-0.39-0.91
			c-0.44,0.3-0.89,0.6-1.33,0.9c-0.38,0.26-0.28,0.75,0.12,0.91c0.6,0.25,1.2,0.19,1.78-0.09c0.39-0.19,0.28-0.81-0.12-0.91
			c-0.52-0.13-1.05-0.27-1.57-0.4c0.1,0.24,0.2,0.49,0.3,0.73c0.34-0.7,0.9-1.14,1.66-1.3c-0.19-0.24-0.38-0.49-0.56-0.73
			c-0.48,0.68-0.95,1.36-1.43,2.04c0.14-0.08,0.29-0.17,0.43-0.25c-0.95,0-1.74-0.83-1.83-1.76c-0.08-0.94,0.71-1.6,1.59-1.7
			c0.85-0.09,1.68,0.37,1.83,1.26c0.14,0.85-0.3,1.83-1.15,2.12c-0.27,0.09-0.51,0.46-0.3,0.73c0.64,0.86,1.71-0.36,0.97-0.98
			c-0.38-0.32-0.96-0.04-1.24-0.45c-0.28-0.41-0.34-0.94-0.6-1.36c-0.51-0.82-1.63-1.1-2.41-0.45c-0.83,0.7-0.6,1.97,0.26,2.53
			c0.32,0.21,0.76-0.06,0.75-0.43c-0.02-0.81-0.94-1.16-1.61-0.79c-1,0.55-0.44,1.81,0.1,2.46c0.27,0.33,0.88,0.06,0.85-0.35
			c-0.24-3.73-0.35-7.46-0.33-11.19c0-0.55-0.88-0.7-0.98-0.13c-0.59,3.23-0.82,6.51-0.69,9.8c0.33,0,0.67,0,1,0
			c-0.17-2.25-0.45-4.51-0.52-6.76c-0.03-1.01,0.39-2.15,0.71-3.11c0.34-1.01,0.78-1.97,1.29-2.9c-0.3-0.13-0.61-0.26-0.91-0.39
			c-1.25,3.9-1.74,8.04-1.39,12.13c0.07,0.77-0.01,1.6,0.65,2.11c0.44,0.33,0.99,0.46,1.53,0.42c1.17-0.1,2.2-0.92,2.27-2.13
			c0.04-0.64-0.96-0.64-1,0c-0.05,0.85-1.14,1.33-1.88,1.09c-0.64-0.21-0.52-0.91-0.57-1.48c-0.07-0.81-0.1-1.63-0.11-2.45
			c-0.01-3.2,0.49-6.37,1.46-9.41c0.17-0.54-0.64-0.88-0.91-0.39c-0.52,0.94-0.96,1.92-1.32,2.93c-0.35,1-0.74,2.14-0.82,3.21
			c-0.09,1.13,0.16,2.38,0.24,3.51c0.09,1.21,0.19,2.42,0.28,3.62c0.05,0.63,1.03,0.65,1,0c-0.13-3.19,0.08-6.39,0.65-9.53
			c-0.33-0.04-0.65-0.09-0.98-0.13c-0.02,3.73,0.09,7.47,0.33,11.19c0.28-0.12,0.57-0.24,0.85-0.35c-0.13-0.15-0.49-0.58-0.34-0.79
			c0-0.09,0.04-0.13,0.13-0.11c0.1,0.04,0.1,0.01,0-0.07c0.25-0.14,0.5-0.29,0.75-0.43c-0.47-0.31-0.32-1.05,0.28-1.03
			c0.52,0.02,0.67,0.66,0.82,1.06c0.14,0.37,0.29,0.74,0.59,1.01c0.14,0.12,0.3,0.23,0.48,0.28c0.08,0.03,0.17,0.04,0.26,0.05
			c0.08,0.01,0.16,0.01,0.24,0.01c0.23,0.02,0.34-0.14,0.34-0.49c0.14,0.08,0.29,0.17,0.43,0.25c-0.02-0.02-0.03-0.04-0.05-0.07
			c-0.1,0.24-0.2,0.49-0.3,0.73c2.38-0.82,2.64-4.67-0.04-5.28c-1.14-0.26-2.46,0.16-3.11,1.17c-0.71,1.08-0.37,2.52,0.51,3.4
			c0.47,0.48,1.17,0.85,1.86,0.82c0.47-0.02,0.62-0.41,0.87-0.76c0.36-0.51,0.72-1.02,1.07-1.53c0.27-0.38-0.17-0.82-0.56-0.73
			c-0.99,0.21-1.81,0.85-2.26,1.76c-0.14,0.28-0.03,0.65,0.3,0.73c0.52,0.13,1.05,0.27,1.57,0.4c-0.04-0.3-0.08-0.61-0.12-0.91
			c-0.35,0.17-0.67,0.13-1.01-0.01c0.04,0.3,0.08,0.61,0.12,0.91c0.44-0.3,0.89-0.6,1.33-0.9c0.44-0.3,0.17-1.14-0.39-0.91
			c-0.35,0.14-0.71,0.29-1.06,0.43c0.16,0.28,0.32,0.56,0.49,0.84c-0.05,0.06-0.5,0.09-0.6,0.1c-0.21,0.01-0.43-0.04-0.64-0.06
			c-0.45-0.05-0.87,0-1.26,0.25c-0.4,0.25-0.26,0.95,0.25,0.93c0.39-0.01,0.79-0.03,1.18-0.04c0.65-0.02,0.63-0.94,0-1
			c-0.36-0.04-0.56-0.29-0.63-0.62c-0.16,0.21-0.32,0.42-0.48,0.63c0.89,0.02,1.74-0.42,2.22-1.17c0.12-0.18,0.22-0.38,0.28-0.59
			c0.04-0.14,0.03-0.35,0.09-0.48c0.13-0.25,0.53-0.25,0.57,0.12c0.07,0.61-0.71,0.91-1.17,0.95c-0.47,0.04-0.99-0.02-1.45-0.11
			c-0.44-0.09-1.14-0.37-0.6-0.88c0.48-0.45,1.29-0.11,1.82,0.07c-0.07-0.28-0.15-0.56-0.22-0.84c-0.99,0.93-1.97,1.86-2.96,2.78
			c0.28,0.16,0.56,0.32,0.84,0.49c0.73-2.74,1.46-5.48,2.19-8.21C239.05,396.95,238.09,396.68,237.92,397.31L237.92,397.31z"/>
	</g>
</g>
<g>
	<g>
		<path d="M235.75,406.22c0.36,0.13,0.73,0.24,1.11,0.27c0.42,0.03,0.85-0.03,1.26-0.08c0.8-0.11,1.59-0.31,2.35-0.6
			c0.31-0.12,0.61-0.25,0.88-0.46c0.31-0.24,0.48-0.53,0.67-0.86c0.17-0.32,0.47-0.53,0.65-0.85c0.19-0.32,0.28-0.69,0.36-1.05
			c0.07-0.3-0.14-0.65-0.48-0.63c-1.06,0.06-2.12,0.18-3.17,0.32c-0.5,0.07-1.02,0.11-1.51,0.21c-0.46,0.1-0.79,0.42-0.82,0.91
			c-0.03,0.48,0.72,0.7,0.93,0.25c0.09-0.18,0.17-0.36,0.26-0.54c-0.3-0.04-0.61-0.08-0.91-0.12c0.03,0.18,0.07,0.37,0.1,0.55
			c0.06,0.36,0.6,0.5,0.84,0.22c0.32-0.37,0.63-0.75,0.95-1.12c-0.2,0.03-0.4,0.05-0.61,0.08c-0.09-0.06-0.08-0.14-0.05,0.01
			c0.01,0.04,0.02,0.09,0.04,0.13c0.05,0.13,0.1,0.26,0.2,0.36c0.24,0.25,0.62,0.28,0.91,0.11c0.53-0.31,0.75-1.2,0.03-1.43
			c-0.61-0.2-0.88,0.77-0.27,0.96c-0.21-0.1-0.3-0.24-0.26-0.39c0-0.02,0.01-0.03,0.04-0.04c0.08,0.02,0.17,0.05,0.25,0.07
			c0.08,0.04,0.04,0.11,0.03-0.01c-0.01-0.06-0.04-0.14-0.06-0.2c-0.08-0.19-0.18-0.32-0.35-0.44c-0.17-0.12-0.47-0.08-0.61,0.08
			c-0.32,0.37-0.63,0.75-0.95,1.12c0.28,0.07,0.56,0.15,0.84,0.22c-0.03-0.18-0.07-0.37-0.1-0.55c-0.07-0.41-0.73-0.5-0.91-0.12
			c-0.09,0.18-0.17,0.36-0.26,0.54c0.31,0.08,0.62,0.17,0.93,0.25c-0.01,0.13-0.07,0.07,0.09,0.06c0.07-0.01,0.15-0.02,0.22-0.03
			c0.19-0.03,0.39-0.05,0.58-0.08c0.41-0.06,0.81-0.11,1.22-0.16c0.8-0.1,1.6-0.18,2.4-0.22c-0.16-0.21-0.32-0.42-0.48-0.63
			c-0.07,0.29-0.13,0.6-0.29,0.86c-0.15,0.24-0.38,0.42-0.54,0.66c-0.16,0.24-0.24,0.53-0.47,0.71c-0.23,0.18-0.52,0.28-0.78,0.38
			c-0.65,0.23-1.32,0.4-2,0.5c-0.33,0.05-0.66,0.08-0.99,0.07c-0.34-0.01-0.66-0.13-0.97-0.24
			C235.41,405.04,235.15,406,235.75,406.22L235.75,406.22z"/>
	</g>
</g>
</svg>
